<svg width="1195" height="1219" viewBox="0 0 1195 1219" fill="none" xmlns="http://www.w3.org/2000/svg">
<path fill-rule="evenodd" clip-rule="evenodd" d="M795.562 495.72L725.868 455.472L666.996 489.12V447.898L597.41 407.794L528.04 447.898V489.553L468.482 455.472L399.438 495.756V575.928L457.985 609.901L399.438 643.874V723.397L468.482 764.331L527.319 730.502V772.193L597.049 811.792L667.068 772.193L666.924 730.502L725.904 764.331L795.562 723.397V643.874L736.762 609.901L795.562 575.928V495.72ZM725.868 468.059L779.221 498.858L661.621 566.515L631.319 548.952L666.996 528.395V501.671L725.868 468.059ZM538.934 460.449L591.999 491.14V552.775L584.964 548.699L574.07 542.424L538.934 522.12V460.449ZM656.101 522.12L609.566 548.916L602.893 552.775V491.14L656.101 460.449V522.12ZM597.446 481.691L544.381 451.036L597.446 420.345L650.618 451.036L597.446 481.691ZM468.555 468.059L528.04 502.104V528.395L563.248 548.736L532.766 566.479L415.743 498.858L468.555 468.059ZM410.332 569.653V508.307L521.908 572.791L468.843 603.59L410.332 569.653ZM463.071 748.462L410.332 717.194V656.497L463.071 687.26V748.462ZM415.707 647.012L532.802 579.066L586.119 609.324L468.519 677.811L415.707 647.012ZM591.602 796.176L538.213 765.881V724.227L591.602 693.536V796.176ZM591.602 680.985L473.966 748.606V687.26L591.602 618.737V680.985ZM543.696 572.719L574.106 555.011L597.41 568.499L620.461 555.227L650.654 572.719L597.049 603.013L543.696 572.719ZM602.496 796.212V693.536L656.029 724.227L656.138 765.881L602.496 796.212ZM720.421 748.642L602.496 680.949V618.737L720.421 687.26V748.642ZM784.668 717.194L731.315 748.534V687.26L784.668 656.425V717.194ZM779.257 647.012L725.868 677.811L607.979 609.324L661.585 579.066L779.257 647.012ZM784.668 569.653L725.868 603.626L672.515 572.791L784.668 508.271V569.653Z" fill="#0CC2FF"/>
</svg>
